# xmcd
#
# Track frame offsets:
#	150
#	18585
#	39802
#	57558
#	74465
#
# Disc length: 1172 seconds
#
# Revision: 0
# Processed by: cddbd v1.4PL0 Copyright (c) Steve Scherf et al.
# Submitted via: dBpowerAMP V4.0
#
DISCID=3f049205
DTITLE=Shania Twain - Forever and for always
DYEAR=1900
DGENRE=Pop
TTITLE0=Forever and for always (Red)
TTITLE1=Forever and for always (Green)
TTITLE2=Man! I feel like a woman (Live)
TTITLE3=That don't impress me much (Live)
TTITLE4=Come on over (Live)
EXTD=
EXTT0=
EXTT1=
EXTT2=
EXTT3=
EXTT4=
PLAYORDER=
